<svg width="30" height="32" viewBox="0 0 30 32" fill="none" xmlns="http://www.w3.org/2000/svg">
<path d="M16.7175 0.672252C15.7538 -0.224084 14.2462 -0.224084 13.2825 0.672252L1.1737 11.9342C0.4245 12.631 0 13.6005 0 14.6147V28.3111C0 30.3483 1.67893 32 3.75 32H7.5C9.57108 32 11.25 30.3483 11.25 28.3111V22.1629C11.25 21.4838 11.8097 20.9333 12.5 20.9333H17.5C18.1903 20.9333 18.75 21.4838 18.75 22.1629V28.3111C18.75 30.3483 20.429 32 22.5 32H26.25C28.321 32 30 30.3483 30 28.3111V14.6147C30 13.6005 29.5755 12.631 28.8263 11.9342L16.7175 0.672252Z" fill="#EEE4E4"/>
</svg>
